<?xml version="1.0" encoding="UTF-8" standalone="no"?>
<!DOCTYPE svg PUBLIC "-//W3C//DTD SVG 1.1//EN"
"http://www.w3.org/Graphics/SVG/1.1/DTD/svg11.dtd">


<!-- Page 1 -->
<svg x="0" y="0" width="625" height="482" viewBox="0 0 625 482" version="1.1" xmlns="http://www.w3.org/2000/svg" xmlns:xlink="http://www.w3.org/1999/xlink"
style="display: block;margin-left: auto;margin-right: auto;">
<defs>
<clipPath id="c0_1"><path d="M64,423.8V17.3H609.6V423.8Z" /></clipPath>

<style type="text/css"><![CDATA[
text { white-space: pre; }
path, image { pointer-events: none; }
text::-moz-selection {
	color: transparent;
	background: rgba(0, 106, 173, 0.4);
}
text::selection {
	color: transparent;
	background: rgba(0, 106, 173, 0.4);
}

.s1_1{
font-size: 18.26px;
font-family: LinBiolinumT_g;
fill: TRANSPARENT;
}
.s2_1{
font-size: 21.92px;
font-family: LinBiolinumT_k;
fill: TRANSPARENT;
}
.s3_1{
font-size: 13.39px;
font-family: LinBiolinumT_g;
fill: TRANSPARENT;
}
.s4_1{
font-size: 18.26px;
font-family: LinBiolinumT_k;
fill: TRANSPARENT;
}

.g0_1{
fill: #FFFFFF;
}
.g1_1{
stroke: #000000;
stroke-width: 1.2222222;
stroke-linecap: butt;
stroke-linejoin: round;
}
.g2_1{
fill: none;
stroke: #1F77B4;
stroke-width: 2.2916667;
stroke-linecap: square;
stroke-linejoin: round;
}
.g3_1{
fill: #1F77B4;
stroke: #1F77B4;
stroke-width: 1.5277778;
stroke-linecap: butt;
stroke-linejoin: miter;
}
.g4_1{
fill: none;
stroke: #1F77B4;
stroke-width: 1.8333334;
stroke-linecap: butt;
stroke-linejoin: round;
stroke-dasharray: 7,3;
}
.g5_1{
fill: none;
stroke: #FF7F0E;
stroke-width: 2.2916667;
stroke-linecap: square;
stroke-linejoin: round;
}
.g6_1{
fill: #FF7F0E;
stroke: #FF7F0E;
stroke-width: 1.5277778;
stroke-linecap: butt;
stroke-linejoin: round;
}
.g7_1{
fill: none;
stroke: #FF7F0E;
stroke-width: 1.8333334;
stroke-linecap: butt;
stroke-linejoin: round;
stroke-dasharray: 7,3;
}
.g8_1{
fill: none;
stroke: #2CA02C;
stroke-width: 2.2916667;
stroke-linecap: square;
stroke-linejoin: round;
}
.g9_1{
fill: #2CA02C;
stroke: #2CA02C;
stroke-width: 1.5277778;
stroke-linecap: butt;
stroke-linejoin: miter;
}
.g10_1{
fill: none;
stroke: #2CA02C;
stroke-width: 1.8333334;
stroke-linecap: butt;
stroke-linejoin: round;
stroke-dasharray: 7,3;
}
.g11_1{
fill: none;
stroke: #000000;
stroke-width: 1.8333334;
stroke-linecap: butt;
stroke-linejoin: round;
stroke-dasharray: 7,3;
}
.g12_1{
fill: none;
stroke: #000000;
stroke-width: 1.2222222;
stroke-linecap: square;
stroke-linejoin: miter;
}
.g13_1{
fill: #FFFFFF;
fill-opacity: 0.8;
stroke: #CCCCCC;
stroke-width: 1.5277778;
stroke-linecap: butt;
stroke-linejoin: miter;
stroke-opacity: 0.8;
}

]]></style>

</defs>
<path d="M0,0
L0,482
L625,482
L625,0 Z " 
fill="#FFFFFF" stroke="none" />
<path d="M0,483H625.9V0H0Z" class="g0_1" />
<path d="M64,423.8H609.6V17.3H64Z" class="g0_1" />
<path d="M64.6,423.8v5.4" class="g1_1" />
<g fill="#000000" >
<use xlink:href="#f0_h" transform="matrix(12,0,0,12,54.1,447)" />
<use xlink:href="#f0_f" transform="matrix(12,0,0,12,62.6,447)" />
<use xlink:href="#f0_h" transform="matrix(12,0,0,12,66.6,447)" />
</g>
<text x="54" y="447" class="s1_1">0.0</text>
<path d="M185.6,423.8v5.4" class="g1_1" />
<g fill="#000000" >
<use xlink:href="#f0_h" transform="matrix(12,0,0,12,175.1,447)" />
<use xlink:href="#f0_f" transform="matrix(12,0,0,12,183.6,447)" />
<use xlink:href="#f0_m" transform="matrix(12,0,0,12,187.6,447)" />
</g>
<text x="175" y="447" class="s1_1">0.5</text>
<path d="M306.5,423.8v5.4" class="g1_1" />
<g fill="#000000" >
<use xlink:href="#f0_i" transform="matrix(12,0,0,12,296,447)" />
<use xlink:href="#f0_f" transform="matrix(12,0,0,12,304.5,447)" />
<use xlink:href="#f0_h" transform="matrix(12,0,0,12,308.6,447)" />
</g>
<text x="296" y="447" class="s1_1">1.0</text>
<path d="M427.5,423.8v5.4" class="g1_1" />
<g fill="#000000" >
<use xlink:href="#f0_i" transform="matrix(12,0,0,12,417,447)" />
<use xlink:href="#f0_f" transform="matrix(12,0,0,12,425.5,447)" />
<use xlink:href="#f0_m" transform="matrix(12,0,0,12,429.5,447)" />
</g>
<text x="417" y="447" class="s1_1">1.5</text>
<path d="M548.5,423.8v5.4" class="g1_1" />
<g fill="#000000" >
<use xlink:href="#f0_j" transform="matrix(12,0,0,12,538,447)" />
<use xlink:href="#f0_f" transform="matrix(12,0,0,12,546.5,447)" />
<use xlink:href="#f0_h" transform="matrix(12,0,0,12,550.5,447)" />
<use xlink:href="#f1_1h" transform="matrix(14.3,0,0,14.3,311.6,468.4)" />
</g>
<text x="537" y="447" class="s1_1">2.0</text>
<g fill="#000000" >
<use xlink:href="#f1_1y" transform="matrix(14.3,0,0,14.3,322,468.4)" />
<use xlink:href="#f1_2c" transform="matrix(14.3,0,0,14.3,331.9,468.4)" />
<use xlink:href="#f1_2d" transform="matrix(14.3,0,0,14.3,340.6,468.4)" />
<use xlink:href="#f2_3e" transform="matrix(14.3,0,0,14.3,352.8,468.4)" />
</g>
<text x="311" y="468" dx="0,-1.4,0,0" class="s2_1">Test</text>
<path d="M64,423.8H58.6" class="g1_1" />
<g fill="#000000" >
<use xlink:href="#f0_h" transform="matrix(12,0,0,12,32.3,430.1)" />
<use xlink:href="#f0_f" transform="matrix(12,0,0,12,40.8,430.1)" />
<use xlink:href="#f0_h" transform="matrix(12,0,0,12,44.8,430.1)" />
</g>
<text x="32" y="430" class="s1_1">0.0</text>
<path d="M64,342.5H58.6" class="g1_1" />
<g fill="#000000" >
<use xlink:href="#f0_h" transform="matrix(12,0,0,12,32.3,348.8)" />
<use xlink:href="#f0_f" transform="matrix(12,0,0,12,40.8,348.8)" />
<use xlink:href="#f0_j" transform="matrix(12,0,0,12,44.8,348.8)" />
</g>
<text x="32" y="348" class="s1_1">0.2</text>
<path d="M64,261.2H58.6" class="g1_1" />
<g fill="#000000" >
<use xlink:href="#f0_h" transform="matrix(12,0,0,12,32.3,267.5)" />
<use xlink:href="#f0_f" transform="matrix(12,0,0,12,40.8,267.5)" />
<use xlink:href="#f0_l" transform="matrix(12,0,0,12,44.8,267.5)" />
</g>
<text x="32" y="267" class="s1_1">0.4</text>
<path d="M64,179.9H58.6" class="g1_1" />
<g fill="#000000" >
<use xlink:href="#f0_h" transform="matrix(12,0,0,12,32.3,186.1)" />
<use xlink:href="#f0_f" transform="matrix(12,0,0,12,40.8,186.1)" />
<use xlink:href="#f0_n" transform="matrix(12,0,0,12,44.8,186.1)" />
</g>
<text x="32" y="186" class="s1_1">0.6</text>
<path d="M64,98.6H58.6" class="g1_1" />
<g fill="#000000" >
<use xlink:href="#f0_h" transform="matrix(12,0,0,12,32.3,104.8)" />
<use xlink:href="#f0_f" transform="matrix(12,0,0,12,40.8,104.8)" />
<use xlink:href="#f0_p" transform="matrix(12,0,0,12,44.8,104.8)" />
</g>
<text x="32" y="104" class="s1_1">0.8</text>
<path d="M64,17.3H58.6" class="g1_1" />
<g fill="#000000" >
<use xlink:href="#f0_i" transform="matrix(12,0,0,12,32.3,23.5)" />
<use xlink:href="#f0_f" transform="matrix(12,0,0,12,40.8,23.5)" />
<use xlink:href="#f0_h" transform="matrix(12,0,0,12,44.8,23.5)" />
<use xlink:href="#f1_1d" transform="matrix(0,-14.3,14.3,0,22.6,254.5)" />
</g>
<text x="32" y="23" class="s1_1">1.0</text>
<g fill="#000000" >
<use xlink:href="#f1_1j" transform="matrix(0,-14.3,14.3,0,22.6,236.8)" />
<use xlink:href="#f1_1u" transform="matrix(0,-14.3,14.3,0,22.6,224.3)" />
<use xlink:href="#f1_25" transform="matrix(0,-14.3,14.3,0,22.6,213.8)" />
<use xlink:href="#f1_2e" transform="matrix(0,-14.3,14.3,0,22.6,208.3)" />
<use xlink:href="#f1_1y" transform="matrix(0,-14.3,14.3,0,22.6,196.6)" />
</g>
<text transform="matrix(0, -1, 1, 0, 22, 254)" dx="0,0,0,-1.3,0,0,0" class="s2_1">P Value</text>
<path d="M88.8,421.9l12.1,-.2l12.1,.6l12.1,-5.6l12.1,-3.5l12.1,-8.3l12.1,17.4l12.1,-17.2L185.6,345l12.1,51.6l12.1,-1.9l12.1,-98.8L234,362.5l12.1,60.6l12.1,-33.2l12.1,20.6l12,-152.3l12.1,79.4l12.1,7.4l12.1,-74.4L330.7,345L342.8,220.5l12.1,111.2L367,312.3l12.1,-41.7l12.1,-50.1l12.1,55.6l12.1,-55.6L427.5,373l12.1,-88.9l12.1,-13.5l12.1,-4.2l12.1,98.7L488,157l12.1,-16.3l12.1,79.8L524.3,87.1l12.1,244.6L548.5,120.5l12.1,155.6l12.1,-55.6L584.8,76" class="g2_1" />
<g clip-path="url(#c0_1)">
<path d="M84.2,426.5h9.2v-9.2H84.2Z" class="g3_1" />
<path d="M96.3,426.2h9.2v-9.1H96.3Z" class="g3_1" />
<path d="M108.4,426.9h9.2v-9.2h-9.2Z" class="g3_1" />
</g>
<path d="M120.5,421.3h9.2v-9.2h-9.2Z" class="g3_1" />
<path d="M132.6,417.7h9.2v-9.1h-9.2Z" class="g3_1" />
<path d="M144.7,409.5h9.2v-9.2h-9.2Z" class="g3_1" />
<g clip-path="url(#c0_1)">
<path d="M156.8,426.9H166v-9.2h-9.2Z" class="g3_1" />
</g>
<path d="M168.9,409.6h9.2v-9.1h-9.2Z" class="g3_1" />
<path d="M181,349.6h9.2v-9.2H181Z" class="g3_1" />
<path d="M193.1,401.2h9.1V392h-9.1Z" class="g3_1" />
<path d="M205.2,399.2h9.1v-9.1h-9.1Z" class="g3_1" />
<path d="M217.3,300.5h9.1v-9.1h-9.1Z" class="g3_1" />
<path d="M229.4,367.1h9.1v-9.2h-9.1Z" class="g3_1" />
<g clip-path="url(#c0_1)">
<path d="M241.5,427.7h9.1v-9.2h-9.1Z" class="g3_1" />
</g>
<path d="M253.6,394.4h9.1v-9.1h-9.1Z" class="g3_1" />
<path d="M265.7,415.1h9.1v-9.2h-9.1Z" class="g3_1" />
<path d="M277.8,262.8h9.1v-9.1h-9.1Z" class="g3_1" />
<path d="M289.9,342.2H299v-9.1h-9.1Z" class="g3_1" />
<path d="M302,349.6h9.1v-9.2H302Z" class="g3_1" />
<path d="M314.1,275.1h9.1V266h-9.1Z" class="g3_1" />
<path d="M326.2,349.6h9.1v-9.2h-9.1Z" class="g3_1" />
<path d="M338.3,225.1h9.1V216h-9.1Z" class="g3_1" />
<path d="M350.4,336.3h9.1v-9.2h-9.1Z" class="g3_1" />
<path d="M362.4,316.8h9.2v-9.1h-9.2Z" class="g3_1" />
<path d="M374.5,275.1h9.2V266h-9.2Z" class="g3_1" />
<path d="M386.6,225.1h9.2V216h-9.2Z" class="g3_1" />
<path d="M398.7,280.7h9.2v-9.2h-9.2Z" class="g3_1" />
<path d="M410.8,225.1H420V216h-9.2Z" class="g3_1" />
<path d="M422.9,377.6h9.2v-9.2h-9.2Z" class="g3_1" />
<path d="M435,288.6h9.2v-9.1H435Z" class="g3_1" />
<path d="M447.1,275.1h9.2V266h-9.2Z" class="g3_1" />
<path d="M459.2,271h9.2v-9.2h-9.2Z" class="g3_1" />
<path d="M471.3,369.6h9.2v-9.1h-9.2Z" class="g3_1" />
<path d="M483.4,161.6h9.2v-9.2h-9.2Z" class="g3_1" />
<path d="M495.5,145.3h9.2v-9.2h-9.2Z" class="g3_1" />
<path d="M507.6,225.1h9.2V216h-9.2Z" class="g3_1" />
<path d="M519.7,91.7h9.2V82.6h-9.2Z" class="g3_1" />
<path d="M531.8,336.3H541v-9.2h-9.2Z" class="g3_1" />
<path d="M543.9,125.1h9.2v-9.2h-9.2Z" class="g3_1" />
<path d="M556,280.7h9.2v-9.2H556Z" class="g3_1" />
<path d="M568.1,225.1h9.2V216h-9.2Z" class="g3_1" />
<path d="M580.2,80.6h9.2V71.4h-9.2Z" class="g3_1" />
<g clip-path="url(#c0_1)">
<path d="M113,423.8V17.3" class="g4_1" />
</g>
<path d="M88.8,423.8H234l12.1,-.9l12.1,-1l12.1,1.8l12,-.3l12.1,.4l12.1,-.9l12.1,-.1l12.1,-14.5l12.1,2.5L354.9,302.5L367,315.6l12.1,102.7L391.2,240.7l12.1,142.5L415.4,374l12.1,3.3L439.6,242.1L451.7,199l12.1,21.5L475.9,91.7L488,141L500.1,88.2l12.1,33.1l12.1,99.2l12.1,-49.7L548.5,78.6L560.6,42.9l12.1,-9.6l12.1,26.9" class="g5_1" />
<g clip-path="url(#c0_1)">
<path d="M88.8,428.4c1.2,0,2.4,-.5,3.2,-1.3c.9,-.9,1.4,-2.1,1.4,-3.3c0,-1.2,-.5,-2.4,-1.4,-3.2c-.8,-.9,-2,-1.4,-3.2,-1.4c-1.2,0,-2.4,.5,-3.3,1.4c-.8,.8,-1.3,2,-1.3,3.2c0,1.2,.5,2.4,1.3,3.3c.9,.8,2.1,1.3,3.3,1.3Z" class="g6_1" />
<path d="M100.9,428.4c1.2,0,2.4,-.5,3.2,-1.3c.9,-.9,1.4,-2.1,1.4,-3.3c0,-1.2,-.5,-2.4,-1.4,-3.2c-.8,-.9,-2,-1.4,-3.2,-1.4c-1.2,0,-2.4,.5,-3.3,1.4c-.8,.8,-1.3,2,-1.3,3.2c0,1.2,.5,2.4,1.3,3.3c.9,.8,2.1,1.3,3.3,1.3Z" class="g6_1" />
<path d="M113,428.4c1.2,0,2.4,-.5,3.2,-1.3c.9,-.9,1.4,-2.1,1.4,-3.3c0,-1.2,-.5,-2.4,-1.4,-3.2c-.8,-.9,-2,-1.4,-3.2,-1.4c-1.2,0,-2.4,.5,-3.3,1.4c-.8,.8,-1.3,2,-1.3,3.2c0,1.2,.5,2.4,1.3,3.3c.9,.8,2.1,1.3,3.3,1.3Z" class="g6_1" />
<path d="M125.1,428.4c1.2,0,2.4,-.5,3.2,-1.3c.9,-.9,1.4,-2.1,1.4,-3.3c0,-1.2,-.5,-2.4,-1.4,-3.2c-.8,-.9,-2,-1.4,-3.2,-1.4c-1.2,0,-2.4,.5,-3.3,1.4c-.8,.8,-1.3,2,-1.3,3.2c0,1.2,.5,2.4,1.3,3.3c.9,.8,2.1,1.3,3.3,1.3Z" class="g6_1" />
<path d="M137.2,428.4c1.2,0,2.4,-.5,3.2,-1.3c.9,-.9,1.4,-2.1,1.4,-3.3c0,-1.2,-.5,-2.4,-1.4,-3.2c-.8,-.9,-2,-1.4,-3.2,-1.4c-1.2,0,-2.4,.5,-3.3,1.4c-.8,.8,-1.3,2,-1.3,3.2c0,1.2,.5,2.4,1.3,3.3c.9,.8,2.1,1.3,3.3,1.3Z" class="g6_1" />
<path d="M149.3,428.4c1.2,0,2.4,-.5,3.2,-1.3c.9,-.9,1.4,-2.1,1.4,-3.3c0,-1.2,-.5,-2.4,-1.4,-3.2c-.8,-.9,-2,-1.4,-3.2,-1.4c-1.2,0,-2.4,.5,-3.3,1.4c-.8,.8,-1.3,2,-1.3,3.2c0,1.2,.5,2.4,1.3,3.3c.9,.8,2.1,1.3,3.3,1.3Z" class="g6_1" />
<path d="M161.4,428.4c1.2,0,2.4,-.5,3.2,-1.3c.9,-.9,1.4,-2.1,1.4,-3.3c0,-1.2,-.5,-2.4,-1.4,-3.2c-.8,-.9,-2,-1.4,-3.2,-1.4c-1.2,0,-2.4,.5,-3.3,1.4c-.8,.8,-1.3,2,-1.3,3.2c0,1.2,.5,2.4,1.3,3.3c.9,.8,2.1,1.3,3.3,1.3Z" class="g6_1" />
<path d="M173.5,428.4c1.2,0,2.4,-.5,3.2,-1.3c.9,-.9,1.4,-2.1,1.4,-3.3c0,-1.2,-.5,-2.4,-1.4,-3.2c-.8,-.9,-2,-1.4,-3.2,-1.4c-1.2,0,-2.4,.5,-3.3,1.4c-.8,.8,-1.3,2,-1.3,3.2c0,1.2,.5,2.4,1.3,3.3c.9,.8,2.1,1.3,3.3,1.3Z" class="g6_1" />
<path d="M185.6,428.4c1.2,0,2.3,-.5,3.2,-1.3c.9,-.9,1.4,-2.1,1.4,-3.3c0,-1.2,-.5,-2.4,-1.4,-3.2c-.9,-.9,-2,-1.4,-3.2,-1.4c-1.2,0,-2.4,.5,-3.3,1.4c-.8,.8,-1.3,2,-1.3,3.2c0,1.2,.5,2.4,1.3,3.3c.9,.8,2.1,1.3,3.3,1.3Z" class="g6_1" />
<path d="M197.7,428.4c1.2,0,2.3,-.5,3.2,-1.3c.9,-.9,1.3,-2.1,1.3,-3.3c0,-1.2,-.4,-2.4,-1.3,-3.2c-.9,-.9,-2,-1.4,-3.2,-1.4c-1.2,0,-2.4,.5,-3.3,1.4c-.8,.8,-1.3,2,-1.3,3.2c0,1.2,.5,2.4,1.3,3.3c.9,.8,2.1,1.3,3.3,1.3Z" class="g6_1" />
<path d="M209.8,428.4c1.2,0,2.3,-.5,3.2,-1.3c.9,-.9,1.3,-2.1,1.3,-3.3c0,-1.2,-.4,-2.4,-1.3,-3.2c-.9,-.9,-2,-1.4,-3.2,-1.4c-1.3,0,-2.4,.5,-3.3,1.4c-.8,.8,-1.3,2,-1.3,3.2c0,1.2,.5,2.4,1.3,3.3c.9,.8,2,1.3,3.3,1.3Z" class="g6_1" />
<path d="M221.9,428.4c1.2,0,2.3,-.5,3.2,-1.3c.9,-.9,1.3,-2.1,1.3,-3.3c0,-1.2,-.4,-2.4,-1.3,-3.2c-.9,-.9,-2,-1.4,-3.2,-1.4c-1.3,0,-2.4,.5,-3.3,1.4c-.8,.8,-1.3,2,-1.3,3.2c0,1.2,.5,2.4,1.3,3.3c.9,.8,2,1.3,3.3,1.3Z" class="g6_1" />
<path d="M234,428.4c1.2,0,2.3,-.5,3.2,-1.3c.9,-.9,1.3,-2.1,1.3,-3.3c0,-1.2,-.4,-2.4,-1.3,-3.2c-.9,-.9,-2,-1.4,-3.2,-1.4c-1.3,0,-2.4,.5,-3.3,1.4c-.8,.8,-1.3,2,-1.3,3.2c0,1.2,.5,2.4,1.3,3.3c.9,.8,2,1.3,3.3,1.3Z" class="g6_1" />
<path d="M246.1,427.5c1.2,0,2.3,-.5,3.2,-1.3c.9,-.9,1.3,-2,1.3,-3.3c0,-1.2,-.4,-2.3,-1.3,-3.2c-.9,-.9,-2,-1.3,-3.2,-1.3c-1.3,0,-2.4,.4,-3.3,1.3c-.8,.9,-1.3,2,-1.3,3.2c0,1.3,.5,2.4,1.3,3.3c.9,.8,2,1.3,3.3,1.3Z" class="g6_1" />
<path d="M258.2,426.4c1.2,0,2.3,-.4,3.2,-1.3c.9,-.9,1.3,-2,1.3,-3.2c0,-1.3,-.4,-2.4,-1.3,-3.3c-.9,-.8,-2,-1.3,-3.2,-1.3c-1.3,0,-2.4,.5,-3.3,1.3c-.8,.9,-1.3,2,-1.3,3.3c0,1.2,.5,2.3,1.3,3.2c.9,.9,2,1.3,3.3,1.3Z" class="g6_1" />
<path d="M270.3,428.3c1.2,0,2.3,-.5,3.2,-1.3c.9,-.9,1.3,-2,1.3,-3.3c0,-1.2,-.4,-2.3,-1.3,-3.2c-.9,-.9,-2,-1.3,-3.2,-1.3c-1.3,0,-2.4,.4,-3.3,1.3c-.8,.9,-1.3,2,-1.3,3.2c0,1.3,.5,2.4,1.3,3.3c.9,.8,2,1.3,3.3,1.3Z" class="g6_1" />
<path d="M282.3,428c1.3,0,2.4,-.5,3.3,-1.3c.8,-.9,1.3,-2.1,1.3,-3.3c0,-1.2,-.5,-2.4,-1.3,-3.2c-.9,-.9,-2,-1.4,-3.3,-1.4c-1.2,0,-2.3,.5,-3.2,1.4c-.9,.8,-1.3,2,-1.3,3.2c0,1.2,.4,2.4,1.3,3.3c.9,.8,2,1.3,3.2,1.3Z" class="g6_1" />
<path d="M294.4,428.4c1.3,0,2.4,-.5,3.3,-1.4c.8,-.8,1.3,-2,1.3,-3.2c0,-1.2,-.5,-2.4,-1.3,-3.2c-.9,-.9,-2,-1.4,-3.3,-1.4c-1.2,0,-2.3,.5,-3.2,1.4c-.9,.8,-1.3,2,-1.3,3.2c0,1.2,.4,2.4,1.3,3.2c.9,.9,2,1.4,3.2,1.4Z" class="g6_1" />
<path d="M306.5,427.5c1.3,0,2.4,-.5,3.3,-1.4c.8,-.8,1.3,-2,1.3,-3.2c0,-1.2,-.5,-2.4,-1.3,-3.3c-.9,-.8,-2,-1.3,-3.3,-1.3c-1.2,0,-2.3,.5,-3.2,1.3c-.9,.9,-1.3,2.1,-1.3,3.3c0,1.2,.4,2.4,1.3,3.2c.9,.9,2,1.4,3.2,1.4Z" class="g6_1" />
<path d="M318.6,427.3c1.3,0,2.4,-.4,3.3,-1.3c.8,-.9,1.3,-2,1.3,-3.2c0,-1.3,-.5,-2.4,-1.3,-3.3c-.9,-.8,-2,-1.3,-3.3,-1.3c-1.2,0,-2.3,.5,-3.2,1.3c-.9,.9,-1.3,2,-1.3,3.3c0,1.2,.4,2.3,1.3,3.2c.9,.9,2,1.3,3.2,1.3Z" class="g6_1" />
</g>
<path d="M330.7,412.9c1.3,0,2.4,-.5,3.3,-1.4c.8,-.8,1.3,-2,1.3,-3.2c0,-1.2,-.5,-2.4,-1.3,-3.2c-.9,-.9,-2,-1.4,-3.3,-1.4c-1.2,0,-2.3,.5,-3.2,1.4c-.9,.8,-1.3,2,-1.3,3.2c0,1.2,.4,2.4,1.3,3.2c.9,.9,2,1.4,3.2,1.4Z" class="g6_1" />
<path d="M342.8,415.4c1.3,0,2.4,-.5,3.3,-1.3c.8,-.9,1.3,-2.1,1.3,-3.3c0,-1.2,-.5,-2.4,-1.3,-3.2c-.9,-.9,-2,-1.4,-3.3,-1.4c-1.2,0,-2.3,.5,-3.2,1.4c-.9,.8,-1.3,2,-1.3,3.2c0,1.2,.4,2.4,1.3,3.3c.9,.8,2,1.3,3.2,1.3Z" class="g6_1" />
<path d="M354.9,307.1c1.2,0,2.4,-.5,3.3,-1.3c.8,-.9,1.3,-2,1.3,-3.3c0,-1.2,-.5,-2.3,-1.3,-3.2c-.9,-.9,-2.1,-1.3,-3.3,-1.3c-1.2,0,-2.3,.4,-3.2,1.3c-.9,.9,-1.3,2,-1.3,3.2c0,1.3,.4,2.4,1.3,3.3c.9,.8,2,1.3,3.2,1.3Z" class="g6_1" />
<path d="M367,320.2c1.2,0,2.4,-.5,3.3,-1.3c.8,-.9,1.3,-2.1,1.3,-3.3c0,-1.2,-.5,-2.4,-1.3,-3.2c-.9,-.9,-2.1,-1.4,-3.3,-1.4c-1.2,0,-2.3,.5,-3.2,1.4c-.9,.8,-1.4,2,-1.4,3.2c0,1.2,.5,2.4,1.4,3.3c.9,.8,2,1.3,3.2,1.3Z" class="g6_1" />
<path d="M379.1,422.9c1.2,0,2.4,-.5,3.3,-1.3c.8,-.9,1.3,-2.1,1.3,-3.3c0,-1.2,-.5,-2.4,-1.3,-3.2c-.9,-.9,-2.1,-1.4,-3.3,-1.4c-1.2,0,-2.4,.5,-3.2,1.4c-.9,.8,-1.4,2,-1.4,3.2c0,1.2,.5,2.4,1.4,3.3c.8,.8,2,1.3,3.2,1.3Z" class="g6_1" />
<path d="M391.2,245.3c1.2,0,2.4,-.5,3.3,-1.3c.8,-.9,1.3,-2,1.3,-3.3c0,-1.2,-.5,-2.3,-1.3,-3.2c-.9,-.9,-2.1,-1.3,-3.3,-1.3c-1.2,0,-2.4,.4,-3.2,1.3c-.9,.9,-1.4,2,-1.4,3.2c0,1.3,.5,2.4,1.4,3.3c.8,.8,2,1.3,3.2,1.3Z" class="g6_1" />
<path d="M403.3,387.8c1.2,0,2.4,-.5,3.3,-1.3c.8,-.9,1.3,-2,1.3,-3.3c0,-1.2,-.5,-2.3,-1.3,-3.2c-.9,-.9,-2.1,-1.3,-3.3,-1.3c-1.2,0,-2.4,.4,-3.2,1.3c-.9,.9,-1.4,2,-1.4,3.2c0,1.3,.5,2.4,1.4,3.3c.8,.8,2,1.3,3.2,1.3Z" class="g6_1" />
<path d="M415.4,378.6c1.2,0,2.4,-.5,3.3,-1.4c.8,-.8,1.3,-2,1.3,-3.2c0,-1.2,-.5,-2.4,-1.3,-3.2c-.9,-.9,-2.1,-1.4,-3.3,-1.4c-1.2,0,-2.4,.5,-3.2,1.4c-.9,.8,-1.4,2,-1.4,3.2c0,1.2,.5,2.4,1.4,3.2c.8,.9,2,1.4,3.2,1.4Z" class="g6_1" />
<path d="M427.5,381.9c1.2,0,2.4,-.5,3.3,-1.3c.8,-.9,1.3,-2.1,1.3,-3.3c0,-1.2,-.5,-2.4,-1.3,-3.2c-.9,-.9,-2.1,-1.4,-3.3,-1.4c-1.2,0,-2.4,.5,-3.2,1.4c-.9,.8,-1.4,2,-1.4,3.2c0,1.2,.5,2.4,1.4,3.3c.8,.8,2,1.3,3.2,1.3Z" class="g6_1" />
<path d="M439.6,246.7c1.2,0,2.4,-.5,3.3,-1.3c.8,-.9,1.3,-2.1,1.3,-3.3c0,-1.2,-.5,-2.4,-1.3,-3.2c-.9,-.9,-2.1,-1.4,-3.3,-1.4c-1.2,0,-2.4,.5,-3.2,1.4c-.9,.8,-1.4,2,-1.4,3.2c0,1.2,.5,2.4,1.4,3.3c.8,.8,2,1.3,3.2,1.3Z" class="g6_1" />
<path d="M451.7,203.5c1.2,0,2.4,-.4,3.3,-1.3c.8,-.9,1.3,-2,1.3,-3.2c0,-1.3,-.5,-2.4,-1.3,-3.3c-.9,-.8,-2.1,-1.3,-3.3,-1.3c-1.2,0,-2.4,.5,-3.2,1.3c-.9,.9,-1.4,2,-1.4,3.3c0,1.2,.5,2.3,1.4,3.2c.8,.9,2,1.3,3.2,1.3Z" class="g6_1" />
<path d="M463.8,225.1c1.2,0,2.4,-.5,3.3,-1.3c.8,-.9,1.3,-2,1.3,-3.3c0,-1.2,-.5,-2.3,-1.3,-3.2c-.9,-.9,-2.1,-1.3,-3.3,-1.3c-1.2,0,-2.4,.4,-3.2,1.3c-.9,.9,-1.4,2,-1.4,3.2c0,1.3,.5,2.4,1.4,3.3c.8,.8,2,1.3,3.2,1.3Z" class="g6_1" />
<path d="M475.9,96.3c1.2,0,2.4,-.5,3.3,-1.3c.8,-.9,1.3,-2.1,1.3,-3.3c0,-1.2,-.5,-2.4,-1.3,-3.2c-.9,-.9,-2.1,-1.4,-3.3,-1.4c-1.2,0,-2.4,.5,-3.2,1.4c-.9,.8,-1.4,2,-1.4,3.2c0,1.2,.5,2.4,1.4,3.3c.8,.8,2,1.3,3.2,1.3Z" class="g6_1" />
<path d="M488,145.6c1.2,0,2.4,-.5,3.2,-1.3c.9,-.9,1.4,-2,1.4,-3.3c0,-1.2,-.5,-2.3,-1.4,-3.2c-.8,-.9,-2,-1.3,-3.2,-1.3c-1.2,0,-2.4,.4,-3.2,1.3c-.9,.9,-1.4,2,-1.4,3.2c0,1.3,.5,2.4,1.4,3.3c.8,.8,2,1.3,3.2,1.3Z" class="g6_1" />
<path d="M500.1,92.8c1.2,0,2.4,-.5,3.2,-1.4c.9,-.8,1.4,-2,1.4,-3.2c0,-1.2,-.5,-2.4,-1.4,-3.3c-.8,-.8,-2,-1.3,-3.2,-1.3c-1.2,0,-2.4,.5,-3.2,1.3c-.9,.9,-1.4,2.1,-1.4,3.3c0,1.2,.5,2.4,1.4,3.2c.8,.9,2,1.4,3.2,1.4Z" class="g6_1" />
<path d="M512.2,125.9c1.2,0,2.4,-.5,3.2,-1.4c.9,-.8,1.4,-2,1.4,-3.2c0,-1.2,-.5,-2.4,-1.4,-3.2c-.8,-.9,-2,-1.4,-3.2,-1.4c-1.2,0,-2.4,.5,-3.2,1.4c-.9,.8,-1.4,2,-1.4,3.2c0,1.2,.5,2.4,1.4,3.2c.8,.9,2,1.4,3.2,1.4Z" class="g6_1" />
<path d="M524.3,225.1c1.2,0,2.4,-.5,3.2,-1.3c.9,-.9,1.4,-2,1.4,-3.3c0,-1.2,-.5,-2.3,-1.4,-3.2c-.8,-.9,-2,-1.3,-3.2,-1.3c-1.2,0,-2.4,.4,-3.2,1.3c-.9,.9,-1.4,2,-1.4,3.2c0,1.3,.5,2.4,1.4,3.3c.8,.8,2,1.3,3.2,1.3Z" class="g6_1" />
<path d="M536.4,175.4c1.2,0,2.4,-.5,3.2,-1.4c.9,-.8,1.4,-2,1.4,-3.2c0,-1.2,-.5,-2.4,-1.4,-3.3c-.8,-.8,-2,-1.3,-3.2,-1.3c-1.2,0,-2.4,.5,-3.2,1.3c-.9,.9,-1.4,2.1,-1.4,3.3c0,1.2,.5,2.4,1.4,3.2c.8,.9,2,1.4,3.2,1.4Z" class="g6_1" />
<path d="M548.5,83.2c1.2,0,2.4,-.5,3.2,-1.3c.9,-.9,1.4,-2,1.4,-3.3c0,-1.2,-.5,-2.3,-1.4,-3.2c-.8,-.9,-2,-1.3,-3.2,-1.3c-1.2,0,-2.4,.4,-3.2,1.3c-.9,.9,-1.4,2,-1.4,3.2c0,1.3,.5,2.4,1.4,3.3c.8,.8,2,1.3,3.2,1.3Z" class="g6_1" />
<path d="M560.6,47.5c1.2,0,2.4,-.5,3.2,-1.3c.9,-.9,1.4,-2,1.4,-3.3c0,-1.2,-.5,-2.3,-1.4,-3.2c-.8,-.9,-2,-1.3,-3.2,-1.3c-1.2,0,-2.4,.4,-3.2,1.3c-.9,.9,-1.4,2,-1.4,3.2c0,1.3,.5,2.4,1.4,3.3c.8,.8,2,1.3,3.2,1.3Z" class="g6_1" />
<path d="M572.7,37.9c1.2,0,2.4,-.5,3.2,-1.4c.9,-.8,1.4,-2,1.4,-3.2c0,-1.2,-.5,-2.4,-1.4,-3.2c-.8,-.9,-2,-1.4,-3.2,-1.4c-1.2,0,-2.4,.5,-3.3,1.4c-.8,.8,-1.3,2,-1.3,3.2c0,1.2,.5,2.4,1.3,3.2c.9,.9,2.1,1.4,3.3,1.4Z" class="g6_1" />
<path d="M584.8,64.7c1.2,0,2.4,-.4,3.2,-1.3c.9,-.9,1.4,-2,1.4,-3.2c0,-1.3,-.5,-2.4,-1.4,-3.3c-.8,-.8,-2,-1.3,-3.2,-1.3c-1.2,0,-2.4,.5,-3.3,1.3c-.8,.9,-1.3,2,-1.3,3.3c0,1.2,.5,2.3,1.3,3.2c.9,.9,2.1,1.3,3.3,1.3Z" class="g6_1" />
<g clip-path="url(#c0_1)">
<path d="M234,423.8V17.3" class="g7_1" />
</g>
<path d="M88.8,423.8H415.4l12.1,-.8l12.1,.3l12.1,-22.1L463.8,423h12.1L488,411.2l12.1,-12.5l12.1,-6.2L524.3,281.2l12.1,33.2L548.5,119l12.1,21.9l12.1,54.8l12.1,62.5" class="g8_1" />
<g clip-path="url(#c0_1)">
<path d="M88.8,419.2l-4.6,9.2h9.2Z" class="g9_1" />
<path d="M100.9,419.2l-4.6,9.2h9.2Z" class="g9_1" />
<path d="M113,419.2l-4.6,9.2h9.2Z" class="g9_1" />
<path d="M125.1,419.2l-4.6,9.2h9.2Z" class="g9_1" />
<path d="M137.2,419.2l-4.6,9.2h9.2Z" class="g9_1" />
<path d="M149.3,419.2l-4.6,9.2h9.2Z" class="g9_1" />
<path d="M161.4,419.2l-4.6,9.2H166Z" class="g9_1" />
<path d="M173.5,419.2l-4.6,9.2h9.2Z" class="g9_1" />
<path d="M185.6,419.2l-4.6,9.2h9.2Z" class="g9_1" />
<path d="M197.7,419.2l-4.6,9.2h9.1Z" class="g9_1" />
<path d="M209.8,419.2l-4.6,9.2h9.1Z" class="g9_1" />
<path d="M221.9,419.2l-4.6,9.2h9.1Z" class="g9_1" />
<path d="M234,419.2l-4.6,9.2h9.1Z" class="g9_1" />
<path d="M246.1,419.2l-4.6,9.2h9.1Z" class="g9_1" />
<path d="M258.2,419.2l-4.6,9.2h9.1Z" class="g9_1" />
<path d="M270.3,419.2l-4.6,9.2h9.1Z" class="g9_1" />
<path d="M282.3,419.2l-4.5,9.2h9.1Z" class="g9_1" />
<path d="M294.4,419.2l-4.5,9.2H299Z" class="g9_1" />
<path d="M306.5,419.2l-4.5,9.2h9.1Z" class="g9_1" />
<path d="M318.6,419.2l-4.5,9.2h9.1Z" class="g9_1" />
<path d="M330.7,419.2l-4.5,9.2h9.1Z" class="g9_1" />
<path d="M342.8,419.2l-4.5,9.2h9.1Z" class="g9_1" />
<path d="M354.9,419.2l-4.5,9.2h9.1Z" class="g9_1" />
<path d="M367,419.2l-4.6,9.2h9.2Z" class="g9_1" />
<path d="M379.1,419.2l-4.6,9.2h9.2Z" class="g9_1" />
<path d="M391.2,419.2l-4.6,9.2h9.2Z" class="g9_1" />
<path d="M403.3,419.2l-4.6,9.2h9.2Z" class="g9_1" />
<path d="M415.4,419.2l-4.6,9.2H420Z" class="g9_1" />
<path d="M427.5,418.4l-4.6,9.2h9.2Z" class="g9_1" />
<path d="M439.6,418.7l-4.6,9.1h9.2Z" class="g9_1" />
</g>
<path d="M451.7,396.6l-4.6,9.2h9.2Z" class="g9_1" />
<g clip-path="url(#c0_1)">
<path d="M463.8,418.5l-4.6,9.1h9.2Z" class="g9_1" />
<path d="M475.9,418.4l-4.6,9.2h9.2Z" class="g9_1" />
</g>
<path d="M488,406.6l-4.6,9.2h9.2Z" class="g9_1" />
<path d="M500.1,394.1l-4.6,9.2h9.2Z" class="g9_1" />
<path d="M512.2,387.9l-4.6,9.2h9.2Z" class="g9_1" />
<path d="M524.3,276.6l-4.6,9.2h9.2Z" class="g9_1" />
<path d="M536.4,309.8l-4.6,9.2H541Z" class="g9_1" />
<path d="M548.5,114.4l-4.6,9.2h9.2Z" class="g9_1" />
<path d="M560.6,136.3l-4.6,9.2h9.2Z" class="g9_1" />
<path d="M572.7,191.1l-4.6,9.2h9.2Z" class="g9_1" />
<path d="M584.8,253.6l-4.6,9.2h9.2Z" class="g9_1" />
<g clip-path="url(#c0_1)">
<path d="M427.5,423.8V17.3" class="g10_1" />
<path d="M64,403.5H609.6" class="g11_1" />
</g>
<path d="M64,423.8V17.3M609.6,423.8V17.3M64,423.8H609.6M64,17.3H609.6" class="g12_1" />
<path d="M284.9,95.1H388.7c2,0,3,-1,3,-3.1V28c0,-2.1,-1,-3.1,-3,-3.1H284.9c-2,0,-3.1,1,-3.1,3.1V92c0,2.1,1.1,3.1,3.1,3.1Z" class="g13_1" />
<path d="M288,36.4h30.5" class="g2_1" />
<path d="M298.6,40.9h9.2V31.8h-9.2Z" class="g3_1" />
<g fill="#000000" >
<use xlink:href="#f2_3e" transform="matrix(12,0,0,12,330.7,39)" />
<use xlink:href="#f0_h" transform="matrix(8.8,0,0,8.8,338.9,41.7)" />
<use xlink:href="#f1_u" transform="matrix(12,0,0,12,350.4,39)" />
</g>
<text x="338" y="41" class="s3_1">0</text>
<g fill="#000000" >
<use xlink:href="#f1_h" transform="matrix(12,0,0,12,364.6,39)" />
<use xlink:href="#f1_f" transform="matrix(12,0,0,12,373.1,39)" />
<use xlink:href="#f1_j" transform="matrix(12,0,0,12,377.1,39)" />
</g>
<text x="350" y="38" class="s4_1">= 0.2</text>
<path d="M288,58.2h30.5" class="g5_1" />
<path d="M303.2,62.8c1.2,0,2.4,-.5,3.3,-1.3c.8,-.9,1.3,-2.1,1.3,-3.3c0,-1.2,-.5,-2.4,-1.3,-3.2c-.9,-.9,-2.1,-1.4,-3.3,-1.4c-1.2,0,-2.4,.5,-3.2,1.4c-.9,.8,-1.4,2,-1.4,3.2c0,1.2,.5,2.4,1.4,3.3c.8,.8,2,1.3,3.2,1.3Z" class="g6_1" />
<g fill="#000000" >
<use xlink:href="#f2_3e" transform="matrix(12,0,0,12,330.7,60.8)" />
<use xlink:href="#f0_h" transform="matrix(8.8,0,0,8.8,338.9,63.6)" />
<use xlink:href="#f1_u" transform="matrix(12,0,0,12,350.4,60.8)" />
</g>
<text x="338" y="63" class="s3_1">0</text>
<g fill="#000000" >
<use xlink:href="#f1_h" transform="matrix(12,0,0,12,364.6,60.8)" />
<use xlink:href="#f1_f" transform="matrix(12,0,0,12,373.1,60.8)" />
<use xlink:href="#f1_o" transform="matrix(12,0,0,12,377.1,60.8)" />
</g>
<text x="350" y="60" class="s4_1">= 0.7</text>
<path d="M288,80.1h30.5" class="g8_1" />
<path d="M303.2,75.5l-4.6,9.2h9.2Z" class="g9_1" />
<g fill="#000000" >
<use xlink:href="#f2_3e" transform="matrix(12,0,0,12,330.7,82.7)" />
<use xlink:href="#f0_h" transform="matrix(8.8,0,0,8.8,338.9,85.4)" />
<use xlink:href="#f1_u" transform="matrix(12,0,0,12,350.4,82.7)" />
</g>
<text x="338" y="85" class="s3_1">0</text>
<g fill="#000000" >
<use xlink:href="#f1_i" transform="matrix(12,0,0,12,364.6,82.7)" />
<use xlink:href="#f1_f" transform="matrix(12,0,0,12,373.1,82.7)" />
<use xlink:href="#f1_m" transform="matrix(12,0,0,12,377.1,82.7)" />
</g>
<text x="350" y="82" class="s4_1">= 1.5</text>

<defs>
<path d="M350,44c27,0,102,16,136,142c21,78,26,158,26,298c0,205,-41,324,-89,364c-17,15,-41,24,-67,24C286,872,191,816,191,438C191,306,208,44,350,44Zm-2,-58C159,-14,60,194,60,442c0,301,143,490,296,490c55,0,104,-15,145,-54C556,828,643,710,643,472C643,115,466,-14,348,-14Z" 
id="f0_h"
transform="scale(0.001,-0.001)" />

<path d="M165,-14C117,-4,96,16,83,67v6c14,41,36,64,82,83h6c44,-16,69,-40,83,-83V67C238,18,214,-4,171,-14Z" 
id="f0_f"
transform="scale(0.001,-0.001)" />

<path d="M309,-14C193,-14,116,37,78,70l-6,5l33,122l22,2C177,107,197,46,312,46c104,0,174,87,174,227c0,167,-77,246,-176,246C239,519,182,497,121,472l-11,4l49,450c52,-5,118,-9,174,-9c81,0,164,4,251,15l10,-5L570,823c-63,-7,-115,-9,-161,-9c-71,0,-137,6,-194,14L183,558c34,12,104,23,167,23C521,581,620,448,620,299C620,119,490,-14,309,-14Z" 
id="f0_m"
transform="scale(0.001,-0.001)" />

<path d="M365,-4l-1,4c10,87,12,170,12,289V668c0,55,0,116,-28,116C318,784,243,767,174,759l-9,45c119,36,235,96,335,128c6,0,10,0,10,-8C507,903,498,842,498,677V289C498,168,501,92,512,0l-3,-4c0,0,-43,4,-74,4C408,0,365,-4,365,-4Z" 
id="f0_i"
transform="scale(0.001,-0.001)" />

<path d="M96,-7C88,5,80,30,80,53c0,7,1,13,3,19c75,71,250,224,360,388c39,59,58,141,58,205c0,107,-82,180,-162,180c-43,0,-87,-11,-117,-35C183,779,175,747,154,701l-20,2L101,808c35,46,124,124,263,124C535,932,632,830,632,685C632,599,578,501,521,425C420,289,348,220,274,148C263,138,247,121,247,107c0,-3,1,-5,2,-8c42,3,71,3,125,3c146,0,193,5,279,13C647,91,646,68,646,43c0,-17,2,-35,5,-50C541,-2,495,0,385,0C273,0,209,-4,96,-7Z" 
id="f0_j"
transform="scale(0.001,-0.001)" />

<path d="M335,-4l-3,4c12,83,15,191,15,306V680c0,26,-2,183,-12,220C130,900,26,878,26,878l-3,7c3,23,3,58,0,100l3,5c24,-3,60,-5,92,-5H707c32,0,68,2,92,5l3,-5c-3,-42,-3,-77,0,-100l-3,-7c0,0,-104,22,-309,22C480,863,478,706,478,680V306C478,191,481,87,493,0l-3,-4c-18,3,-59,4,-77,4C394,0,353,-1,335,-4Z" 
id="f1_1h"
transform="scale(0.001,-0.001)" />

<path d="M472,417c15,0,21,8,21,21c0,115,-67,172,-128,172C317,610,217,576,191,417ZM364,-14C261,-14,173,22,121,86C70,147,52,233,52,319c0,225,156,352,313,352C567,671,629,510,629,382c0,-17,-10,-26,-27,-26H186c0,-89,10,-151,37,-194C265,95,337,75,390,75c84,0,155,26,209,84l30,-38C571,41,474,-14,364,-14Z" 
id="f1_1y"
transform="scale(0.001,-0.001)" />

<path d="M281,-14C223,-14,138,-4,50,26L76,154l23,2C142,96,206,46,280,46c81,0,140,46,140,127c0,75,-66,99,-154,123C174,322,83,362,83,484c0,127,117,187,230,187c78,0,162,-23,206,-46l4,-5L492,507l-21,-1C435,547,387,610,307,610C241,610,191,576,191,513c0,-76,84,-105,142,-119C442,368,541,319,541,194C541,110,492,-14,281,-14Z" 
id="f1_2c"
transform="scale(0.001,-0.001)" />

<path d="M275,-14C205,-14,141,32,141,131c0,46,4,156,4,248V588c-35,0,-82,-1,-108,-3l-8,11c15,23,23,37,34,62c19,-2,51,-3,82,-3c0,89,3,143,6,196l3,5c50,6,69,22,107,38c10,0,14,-5,14,-16c-7,-88,-8,-108,-8,-223h72c35,0,80,2,107,3l8,-10c-9,-23,-14,-38,-19,-63c-20,2,-73,3,-110,3H267V396c0,-92,-4,-158,-4,-203C263,110,277,73,313,67c13,-2,26,-3,39,-3c25,0,51,4,82,15L452,41C388,0,339,-14,275,-14Z" 
id="f1_2d"
transform="scale(0.001,-0.001)" />

<path d="M362,-11C267,-11,203,20,162,83c-29,44,-41,93,-41,149c0,29,3,61,10,95c23,99,75,185,153,252c78,67,177,99,240,99c67,0,116,-16,153,-52c12,-10,23,-21,30,-33L677,561c-12,10,-26,20,-41,29c-26,13,-52,21,-91,21H523c-43,0,-98,-4,-156,-52C325,527,287,464,263,385H597L581,318H249c-5,-25,-6,-46,-6,-66c0,-58,14,-105,43,-140C315,76,354,55,414,55c35,0,67,8,101,21c30,14,59,31,87,52l17,-23C597,81,571,61,539,40C486,6,426,-11,362,-11Z" 
id="f2_3e"
transform="scale(0.001,-0.001)" />

<path d="M437,303V782L127,303ZM426,-4l-1,4c9,78,12,108,12,226H122c-55,0,-90,8,-90,31c0,15,5,32,20,59c79,136,299,472,393,601c0,1,6,6,6,6c0,0,27,-6,52,-6c23,0,45,6,59,6c2,0,3,-3,3,-6c-7,-71,-9,-176,-9,-226V303h98c15,0,23,-11,23,-25c0,-17,-23,-52,-44,-52H556c0,-88,3,-137,9,-226c0,-1,-1,-4,-3,-4c-14,0,-39,4,-64,4C474,0,426,-4,426,-4Z" 
id="f0_l"
transform="scale(0.001,-0.001)" />

<path d="M390,41c73,0,136,55,136,223c0,75,-23,222,-178,222c-33,0,-94,-2,-154,-63c-1,-15,-1,-41,-1,-56C193,95,309,41,390,41ZM373,-13C255,-13,70,50,70,371c0,148,52,294,164,405C338,882,449,924,607,933l4,-42C506,880,420,853,342,778C269,706,214,597,197,468c37,45,122,79,183,79C619,547,660,348,660,275C660,165,596,-13,373,-13Z" 
id="f0_n"
transform="scale(0.001,-0.001)" />

<path d="M348,37c71,0,179,30,179,178c0,72,-40,139,-134,199l-71,44C191,371,179,269,179,223C179,86,278,37,348,37Zm23,519c43,31,124,104,124,187c0,71,-37,139,-136,139C267,882,217,822,217,750c0,-47,11,-104,107,-166l47,-28ZM345,-13C183,-13,60,67,60,223c0,60,38,128,100,183c39,34,69,58,107,87l-30,17C150,561,102,637,102,723c0,117,110,209,266,209c151,0,240,-81,240,-191C608,643,497,565,428,519l93,-61C605,403,654,336,654,248C654,131,545,-13,345,-13Z" 
id="f0_p"
transform="scale(0.001,-0.001)" />

<path d="M411,487c148,0,234,57,234,233C645,901,533,930,428,930C318,930,290,908,290,863V503c20,-11,83,-16,121,-16ZM147,-4l-3,4c12,83,15,191,15,306V680c0,114,-3,218,-15,305l3,5c18,-3,59,-5,78,-5c45,0,174,11,213,11C721,996,793,840,793,727C793,597,697,422,419,422c-54,0,-95,4,-129,15V306C290,191,293,87,306,0l-3,-4c-19,3,-60,4,-78,4C206,0,165,-1,147,-4Z" 
id="f1_1d"
transform="scale(0.001,-0.001)" />

<path d="M443,-14C303,319,101,836,24,990c26,-3,68,-5,92,-5c24,0,59,2,84,5C215,937,292,666,492,202h3C605,456,754,794,807,990c17,-3,52,-5,68,-5c14,0,43,2,62,5C782,652,633,324,486,-14Z" 
id="f1_1j"
transform="scale(0.001,-0.001)" />

<path d="M306,63c45,0,97,27,140,59c12,9,22,20,22,40l6,182L344,309C225,277,193,225,193,156c0,-48,44,-93,113,-93ZM260,-14C147,-14,69,37,69,150c0,104,98,186,253,221l142,32c5,2,11,8,11,19c0,172,-92,180,-147,180C255,602,203,541,160,472l-19,2L115,576l4,6c38,32,109,89,225,89c116,0,252,-42,252,-248c0,-17,-4,-186,-4,-230c0,-68,9,-106,25,-120c9,-8,30,-11,45,-11c11,0,24,2,41,8L714,32C678,-5,631,-14,593,-14C537,-14,491,14,474,73h-6C387,5,344,-14,260,-14Z" 
id="f1_1u"
transform="scale(0.001,-0.001)" />

<path d="M127,-4l-3,4c11,82,14,192,14,306V736c0,117,-2,230,-14,295l3,5c62,4,95,15,133,30c9,0,13,-4,13,-15C266,955,260,878,260,764V306C260,191,262,87,273,0l-3,-4c-18,3,-53,4,-71,4C180,0,145,-1,127,-4Z" 
id="f1_25"
transform="scale(0.001,-0.001)" />

<path d="M327,-14C176,-14,127,92,127,197V380c0,117,-2,188,-14,275l3,5c18,-3,54,-5,72,-5c18,0,53,2,72,5l3,-5C251,574,249,495,249,380V229C249,87,299,70,351,70c75,0,163,82,210,161V380c0,117,-2,188,-14,275l3,5c18,-3,53,-5,72,-5c18,0,53,2,72,5l3,-5C684,574,683,495,683,380V293C683,179,697,66,709,0l-3,-4c-20,3,-49,4,-68,4C616,0,598,-1,578,-4c-5,0,-7,2,-7,4l-7,136l-6,5C507,63,422,-14,327,-14Z" 
id="f1_2e"
transform="scale(0.001,-0.001)" />

<path d="M101,220v75H704V220Zm0,191v75H704V411Z" 
id="f1_u"
transform="scale(0.001,-0.001)" />

<path d="M350,44c27,0,102,16,136,142c21,78,26,158,26,298c0,205,-41,324,-89,364c-17,15,-41,24,-67,24C286,872,191,816,191,438C191,306,208,44,350,44Zm-2,-58C159,-14,60,194,60,442c0,301,143,490,296,490c55,0,104,-15,145,-54C556,828,643,710,643,472C643,115,466,-14,348,-14Z" 
id="f1_h"
transform="scale(0.001,-0.001)" />

<path d="M165,-14C117,-4,96,16,83,67v6c14,41,36,64,82,83h6c44,-16,69,-40,83,-83V67C238,18,214,-4,171,-14Z" 
id="f1_f"
transform="scale(0.001,-0.001)" />

<path d="M96,-7C88,5,80,30,80,53c0,7,1,13,3,19c75,71,250,224,360,388c39,59,58,141,58,205c0,107,-82,180,-162,180c-43,0,-87,-11,-117,-35C183,779,175,747,154,701l-20,2L101,808c35,46,124,124,263,124C535,932,632,830,632,685C632,599,578,501,521,425C420,289,348,220,274,148C263,138,247,121,247,107c0,-3,1,-5,2,-8c42,3,71,3,125,3c146,0,193,5,279,13C647,91,646,68,646,43c0,-17,2,-35,5,-50C541,-2,495,0,385,0C273,0,209,-4,96,-7Z" 
id="f1_j"
transform="scale(0.001,-0.001)" />

<path d="M194,-19l-5,9C292,218,408,507,527,802c-28,1,-67,2,-109,2C311,804,176,800,96,788c3,23,8,52,8,75c0,23,-5,41,-8,64c66,-9,200,-10,428,-10c47,0,75,7,98,15l26,-15C477,500,393,246,306,-13L194,-19Z" 
id="f1_o"
transform="scale(0.001,-0.001)" />

<path d="M365,-4l-1,4c10,87,12,170,12,289V668c0,55,0,116,-28,116C318,784,243,767,174,759l-9,45c119,36,235,96,335,128c6,0,10,0,10,-8C507,903,498,842,498,677V289C498,168,501,92,512,0l-3,-4c0,0,-43,4,-74,4C408,0,365,-4,365,-4Z" 
id="f1_i"
transform="scale(0.001,-0.001)" />

<path d="M309,-14C193,-14,116,37,78,70l-6,5l33,122l22,2C177,107,197,46,312,46c104,0,174,87,174,227c0,167,-77,246,-176,246C239,519,182,497,121,472l-11,4l49,450c52,-5,118,-9,174,-9c81,0,164,4,251,15l10,-5L570,823c-63,-7,-115,-9,-161,-9c-71,0,-137,6,-194,14L183,558c34,12,104,23,167,23C521,581,620,448,620,299C620,119,490,-14,309,-14Z" 
id="f1_m"
transform="scale(0.001,-0.001)" />


</defs>

<!-- Any embedded fonts defined here -->
<style type="text/css" ><![CDATA[

@font-face {
	font-family: LinBiolinumT_g;
	src: url("fonts/LinBiolinumT_g.woff") format("woff");
}

@font-face {
	font-family: LinBiolinumT_k;
	src: url("fonts/LinBiolinumT_k.woff") format("woff");
}

]]></style>

</svg>
